mtllib material.mtl
o Default
v 0 -7.5 -13.5
v -0.5 0 -19.5
v -6 0 -13.5
v 0.5 -7.5 -13.5
v 8 -7.5 -13.5
v 7.5 0 -19.5
v 13.5 0 -14
v 8.5 -7 -13
v 8 -7.5 -5.5
v 13.5 0 -6
v 8 0 0
v 7.5 -7 -5.5
v 0 -7.5 -5.5
v 0 0 0
v -6 0 -5.5
v 0 -7.5 -5.5
v 0 -7.5 -13.5
v -6 0 -5.5
v -6 0 -14
v 0 -7.5 -5.5
v 8 -7.5 -5.5
v 13.5 0 -14
v 13.5 0 -6
v 8 -7.5 -13.5
v 0 -7.5 -5.5
v 8 0 0
v 0 0 0
v 8 -7.5 -5.5
v 0 -7.5 -13.5
v 8 -7.5 -5.5
v 0 -7.5 -5.5
v 8 -7.5 -13.5
v 8 -7.5 -13.5
v -0.5 0 -19.5
v 7.5 0 -19.5
v 0 -7.5 -13.5
v 7.5 8 -19.5
v 0 13 -13.5
v 7.5 13 -13.5
v -0.5 8 -19.5
v 7.5 0 -19.5
v -0.5 8 -19.5
v 7.5 8 -19.5
v -0.5 0 -19.5
v -0.5 8 -19.5
v 0 13 -13.5
v 0 13 -13.5
v -6 8 -13.5
v -0.5 0 -19.5
v -6 8 -13.5
v -0.5 8 -19.5
v -6 0 -13.5
v 13.5 8 -14
v 7.5 13 -13.5
v 7.5 13 -13.5
v 7.5 8 -19.5
v 13.5 0 -14
v 7.5 8 -19.5
v 13.5 8 -14
v 7.5 0 -19.5
v -6 8 -13.5
v 0 13 -6
v 0 13 -13.5
v -6 8 -5.5
v -6 0 -13.5
v -6 8 -5.5
v -6 8 -13.5
v -6 0 -5.5
v -6 8 -5.5
v 0 13 -6
v 0 13 -6
v 0 8 0
v -6 0 -5.5
v 0 8 0
v -6 8 -5.5
v 0 0 0
v 13.5 0 -6
v 13.5 8 -14
v 13.5 8 -6
v 13.5 0 -14
v 13.5 8 -6
v 7.5 13 -13.5
v 7.5 13 -6
v 13.5 8 -14
v 0 13 -6
v 7.5 13 -13.5
v 0 13 -13.5
v 7.5 13 -6
v 8 8 0
v 7.5 13 -6
v 7.5 13 -6
v 13.5 8 -6
v 0 8 0
v 7.5 13 -6
v 0 13 -6
v 8 8 0
v 8 0 0
v 13.5 8 -6
v 8 8 0
v 13.5 0 -6
v 0 0 0
v 8 8 0
v 0 8 0
v 8 0 0
vt 0 0.3333333432674408
vt 0.3333333432674408 0.6666666865348816
vt 0 0.6666666865348816
vt 0.3333333432674408 0.3333333432674408
vt 0.6666666865348816 0.3333333432674408
vt 1 0.6666666865348816
vt 0.6666666865348816 0.6666666865348816
vt 1 0.3333333432674408
vt 0.3333333432674408 1
vt 0 1
vt 1.2417634032146907e-8 0.6666666865348816
vt 9.934107758624577e-9 1
vt 0.6666666865348816 1
vt 1 1
vn -0.63496508 -0.50797206 -0.58205132
vn 0 0 1
vn 0.59341002 -0.47832444 -0.64735638
vn -0.81186945 0.33076163 0.48110782
vn 0.6605071 -0.44400755 0.60546484
vn -0.03840477 -0.03840477 -0.99852398
vn -0.59442962 -0.4755437 0.64846868
vn 0 0 0
vn -0.78086881 -0.62469505 0
vn 0.806405 -0.59136366 0
vn 0 -0.59136366 0.806405
vn 0 -1 0
vn 0 -0.62469505 -0.78086881
vn 0 0.76822128 -0.6401844
vn 0 0 -1
vn -0.55213425 0.6625611 -0.50612306
vn -0.73715414 0 -0.67572463
vn 0.50612306 0.6625611 -0.55213425
vn 0.67572463 0 -0.73715414
vn -0.6401844 0.76822128 0
vn -1 0 0
vn -0.50612306 0.6625611 0.55213425
vn -0.67572463 0 0.73715414
vn 1 0 0
vn 0.6401844 0.76822128 0
vn 0 1 0
vn 0.55213425 0.6625611 0.50612306
vn 0 0.76822128 0.6401844
vn 0.73715414 0 0.67572463
g Object 444
usemtl applespritetest
f 1/1/1 3/2/1 2/3/1
f 1/1/2 4/4/2 3/2/2
f 5/1/3 6/2/3 7/3/3
f 5/1/4 8/4/4 6/2/4
f 9/1/5 10/2/5 11/3/5
f 9/1/6 12/4/6 10/2/6
f 13/1/7 14/2/7 15/3/7
f 13/1/8 16/4/8 14/2/8
f 17/1/9 18/2/9 19/3/9
f 17/1/9 20/4/9 18/2/9
f 21/1/10 22/2/10 23/3/10
f 21/1/10 24/4/10 22/2/10
f 25/1/11 26/2/11 27/3/11
f 25/1/11 28/4/11 26/2/11
f 29/5/12 30/6/12 31/7/12
f 29/5/12 32/8/12 30/6/12
f 33/1/13 34/2/13 35/3/13
f 33/1/13 36/4/13 34/2/13
f 37/3/14 38/9/14 39/10/14
f 37/3/14 40/2/14 38/9/14
f 41/3/15 42/9/15 43/10/15
f 41/3/15 44/2/15 42/9/15
f 45/3/8 46/9/8 47/10/8
f 45/3/16 48/2/16 46/9/16
f 49/11/17 50/9/17 51/12/17
f 49/11/17 52/2/17 50/9/17
f 53/3/8 54/9/8 55/10/8
f 53/3/18 56/2/18 54/9/18
f 57/11/19 58/9/19 59/12/19
f 57/11/19 60/2/19 58/9/19
f 61/3/20 62/9/20 63/10/20
f 61/3/20 64/2/20 62/9/20
f 65/3/21 66/9/21 67/10/21
f 65/3/21 68/2/21 66/9/21
f 69/3/8 70/9/8 71/10/8
f 69/3/22 72/2/22 70/9/22
f 73/2/23 74/13/23 75/9/23
f 73/2/23 76/7/23 74/13/23
f 77/3/24 78/9/24 79/10/24
f 77/3/24 80/2/24 78/9/24
f 81/3/25 82/9/25 83/10/25
f 81/3/25 84/2/25 82/9/25
f 85/7/26 86/14/26 87/13/26
f 85/7/26 88/6/26 86/14/26
f 89/3/8 90/9/8 91/10/8
f 89/3/27 92/2/27 90/9/27
f 93/3/28 94/9/28 95/10/28
f 93/3/28 96/2/28 94/9/28
f 97/11/29 98/9/29 99/12/29
f 97/11/29 100/2/29 98/9/29
f 101/3/2 102/9/2 103/10/2
f 101/3/2 104/2/2 102/9/2
